<?xml version="1.0" encoding="utf-8"?>
<!-- Generator: Adobe Illustrator 23.0.3, SVG Export Plug-In . SVG Version: 6.00 Build 0)  -->
<svg version="1.1" id="Layer_1" xmlns="http://www.w3.org/2000/svg" xmlns:xlink="http://www.w3.org/1999/xlink" x="0px" y="0px"
	 viewBox="0 0 512 466" style="enable-background:new 0 0 512 466;" xml:space="preserve">
<style type="text/css">
	.st0{fill:#5514b4;}
</style>
<g>
	<path class="st0" d="M91.5,271.8c-14.5,0-29,0-43.5,0c-12.1,0-17-5.1-17.9-17.1c-2.7-32.4,1-64,12.2-94.3
		C69.1,87.6,119.7,39.1,194.2,17.1C253.2-0.3,310.7,6.1,364.8,35.3C421,65.7,458,112.1,475.9,173.5c8,27.3,10.4,55.2,7.9,83.5
		c-0.8,9-6.5,14.8-15.6,14.7c-30.8,0-61.7-0.2-92.5-0.4c-9.6-0.1-15.7-6-15.6-14.4c0.1-8.4,6.2-14.2,15.9-14.2c23.7-0.1,47.3,0,71,0
		c9.3,0,9.3,0,9.1-9.1c-1.6-86.9-56-161.6-139.3-187.3c-68.3-21.1-131.5-8.3-187.1,37C94.2,112,71.8,149.5,62.6,194.2
		c-2.9,14.1-3.1,28.7-4.6,43.1c-0.4,4.1,1.3,5.4,5.4,5.3c24.5-0.2,49-0.3,73.5,0.1c4.2,0.1,8.9,1.6,12.4,3.9
		c4.8,3.3,5.7,8.8,4.1,14.4c-1.7,5.6-5.5,9.2-11.3,9.8c-4.5,0.5-9,0.5-13.5,0.5c-12.3,0.1-24.7,0-37,0
		C91.5,271.6,91.5,271.7,91.5,271.8z"/>
	<path class="st0" d="M324.5,257.6c-0.3,26.9-20.2,50.1-47.6,55.2c-29.4,5.4-56.1-9.1-67.3-36.7c-10.9-26.8-17-54.9-22.4-83.2
		c-2.9-15.2-5.2-30.5-7.7-45.7c-0.3-2-0.5-4-0.5-6c-0.2-6.1,1.5-11.2,7.3-14.2c6-3.2,11.8-2.2,16.9,1.6
		c35.6,26.1,70.4,53.2,100.8,85.5c9,9.5,17.1,19.6,19.3,33.1C323.8,250.7,324.1,254.2,324.5,257.6z M215,173.4
		c-0.4,0.3-0.9,0.5-1.3,0.8c1.1,5.7,2.1,11.4,3.2,17c5.1,25.4,10.6,50.8,20.5,74.9c5.9,14.4,18.3,21.2,33.6,18.9
		c21-3.1,31.5-27.9,17.6-43.7c-13.4-15.2-28.4-29-43.3-42.8C235.6,189.7,225.1,181.8,215,173.4z"/>
</g>
<g>
	<path class="st0" d="M110.8,427.2c0,5.3-0.8,10.2-2.4,14.7c-1.6,4.5-4,8.4-7.2,11.7c-3.2,3.2-7.1,5.8-11.8,7.6
		c-4.7,1.8-10.1,2.8-16.1,2.8c-12.9,0-24.2-2.2-34.1-6.5v-21.6c5.7,2.9,11.1,5.2,16.3,6.7c5.2,1.6,10.6,2.4,16.3,2.4
		c5.2,0,9.2-1.2,11.9-3.7c2.7-2.5,4.1-6,4.1-10.6c0-4.4-1.2-7.9-3.6-10.6c-2.4-2.7-5.3-5.1-8.9-7.2c-3.5-2.1-7.4-4-11.5-5.9
		c-4.1-1.8-7.9-4.1-11.5-6.9c-3.5-2.7-6.5-6.2-8.9-10.3c-2.4-4.1-3.6-9.5-3.6-16c0-5.4,0.9-10.2,2.8-14.4c1.8-4.2,4.5-7.8,7.8-10.8
		c3.4-3,7.4-5.2,12-6.7c4.6-1.5,9.8-2.3,15.4-2.3c5.4,0,10.3,0.4,14.8,1.3c4.5,0.9,8.7,2.2,12.6,4v21c-4.2-2.1-8.5-3.9-12.8-5.3
		c-4.3-1.4-8.8-2.1-13.5-2.1c-4.6,0-8.4,1.2-11.4,3.5c-3,2.3-4.5,5.5-4.5,9.5c0,3.7,1.2,6.8,3.5,9.4c2.3,2.5,5.3,4.8,8.9,6.9
		c3.6,2.1,7.4,4.2,11.6,6.3c4.1,2.1,8,4.6,11.6,7.6c3.6,2.9,6.5,6.4,8.9,10.4C109.6,416.3,110.8,421.2,110.8,427.2z"/>
	<path class="st0" d="M205.9,380.1c0,13.2-3.9,23.6-11.8,31c-7.8,7.4-18.9,11.1-33.3,11.1h-9.2v40h-22.5V341h33.9
		c5.8,0,11.3,0.8,16.5,2.4c5.2,1.6,9.8,4.1,13.7,7.4c3.9,3.3,7,7.4,9.2,12.3C204.8,368,205.9,373.7,205.9,380.1z M182.7,380.3
		c0-7.1-2.1-12.2-6.3-15.5c-4.2-3.3-10-5-17.3-5h-7.5v43.5h7.1c7.6,0,13.5-1.8,17.7-5.4C180.6,394.4,182.7,388.5,182.7,380.3z"/>
	<path class="st0" d="M244.9,443.3h45.7v18.8h-68.2V341h66.5v18.8h-44v31.1H287v18.8h-42.2V443.3z"/>
	<path class="st0" d="M332.1,443.3h45.7v18.8h-68.2V341h66.5v18.8h-44v31.1h42.2v18.8h-42.2V443.3z"/>
	<path class="st0" d="M481.9,401.6c0,8.6-1.1,16.6-3.2,24c-2.1,7.4-5.3,13.8-9.7,19.2c-4.3,5.4-9.8,9.6-16.4,12.7
		c-6.6,3.1-14.4,4.6-23.5,4.6h-32.4V341h31.1c9.5,0,17.7,1.5,24.5,4.4c6.8,2.9,12.4,7,16.8,12.3c4.4,5.3,7.6,11.7,9.7,19.2
		C480.9,384.3,481.9,392.6,481.9,401.6z M458.7,401.5c0-4.9-0.4-9.8-1.2-14.8c-0.8-5-2.2-9.4-4.2-13.4c-2-4-4.8-7.2-8.2-9.7
		c-3.5-2.5-7.9-3.8-13.3-3.8h-12.6v83.5H432c5.2,0,9.5-1.2,12.9-3.7c3.5-2.5,6.2-5.7,8.2-9.7c2-4,3.4-8.5,4.3-13.5
		S458.7,406.5,458.7,401.5z"/>
</g>
</svg>
